<svg xmlns="http://www.w3.org/2000/svg" xmlns:xlink="http://www.w3.org/1999/xlink" contentStyleType="text/css" data-diagram-type="STATE" height="732px" preserveAspectRatio="none" style="width:818px;height:732px;background:#FFFFFF;" version="1.1" viewBox="0 0 818 732" width="818px" zoomAndPan="magnify"><title>State Diagram &#8212; BookCopy (&#3605;&#3633;&#3623;&#3648;&#3621;&#3656;&#3617;&#3627;&#3609;&#3633;&#3591;&#3626;&#3639;&#3629;)</title><defs/><g><text fill="#000000" font-family="Tahoma" font-size="14" font-weight="bold" lengthAdjust="spacing" textLength="294.2188" x="255.2363" y="24.0068">State Diagram &#8212; BookCopy (&#3605;&#3633;&#3623;&#3648;&#3621;&#3656;&#3617;&#3627;&#3609;&#3633;&#3591;&#3626;&#3639;&#3629;)</text><g class="entity" data-entity="N1" data-source-line="30" data-uid="ent0002" id="entity_N1"><path d="M6,43.8984 L6,97.3516 L327.5508,97.3516 L327.5508,53.8984 L317.5508,43.8984 L6,43.8984" fill="#FEFFDD" style="stroke:#181818;stroke-width:0.5;"/><path d="M317.5508,43.8984 L317.5508,53.8984 L327.5508,53.8984 L317.5508,43.8984" fill="#FEFFDD" style="stroke:#181818;stroke-width:1;"/><text fill="#000000" font-family="Tahoma" font-size="12" lengthAdjust="spacing" textLength="189.2109" x="12" y="60.9043">&#3626;&#3606;&#3634;&#3609;&#3632;&#3609;&#3637;&#3657;&#3606;&#3641;&#3585;&#3651;&#3594;&#3657;&#3651;&#3609; CopyAvailabilityRule</text><text fill="#000000" font-family="Tahoma" font-size="12" lengthAdjust="spacing" textLength="300.5508" x="12" y="75.3887">&#3586;&#3629;&#3591; Chain of Responsibility: &#3618;&#3639;&#3617;&#3652;&#3604;&#3657;&#3648;&#3593;&#3614;&#3634;&#3632;&#3648;&#3592;&#3657;&#3634;&#3586;&#3629;&#3591;&#3588;&#3636;&#3623; READY</text><text fill="#000000" font-family="Tahoma" font-size="12" lengthAdjust="spacing" textLength="193.2949" x="12" y="89.873">&#3607;&#3637;&#3656;&#3618;&#3633;&#3591;&#3652;&#3617;&#3656;&#3627;&#3617;&#3604;&#3648;&#3623;&#3621;&#3634;; &#3588;&#3636;&#3623;&#3629;&#3639;&#3656;&#3609;&#3652;&#3617;&#3656;&#3652;&#3604;&#3657;&#3619;&#3633;&#3610;&#3629;&#3609;&#3640;&#3597;&#3634;&#3605;</text></g><ellipse cx="373" cy="70.3984" fill="#222222" rx="10" ry="10" style="stroke:#222222;stroke-width:1;"/><g id="AVAILABLE"><rect fill="#E8F8F5" height="50" rx="12.5" ry="12.5" style="stroke:#34495E;stroke-width:0.5;" width="78.9688" x="333.5" y="172.8984"/><line style="stroke:#34495E;stroke-width:0.5;" x1="333.5" x2="412.4688" y1="197.3828" y2="197.3828"/><text fill="#000000" font-family="Tahoma" font-size="12" lengthAdjust="spacing" textLength="58.9688" x="343.5" y="189.9043">AVAILABLE</text></g><g id="ON_LOAN"><rect fill="#E8F8F5" height="50" rx="12.5" ry="12.5" style="stroke:#34495E;stroke-width:0.5;" width="72.7168" x="381.5" y="438.8984"/><line style="stroke:#34495E;stroke-width:0.5;" x1="381.5" x2="454.2168" y1="463.3828" y2="463.3828"/><text fill="#000000" font-family="Tahoma" font-size="12" lengthAdjust="spacing" textLength="52.7168" x="391.5" y="455.9043">ON_LOAN</text></g><g id="RESERVED"><rect fill="#E8F8F5" height="50" rx="12.5" ry="12.5" style="stroke:#34495E;stroke-width:0.5;" width="77.0762" x="272.5" y="312.8984"/><line style="stroke:#34495E;stroke-width:0.5;" x1="272.5" x2="349.5762" y1="337.3828" y2="337.3828"/><text fill="#000000" font-family="Tahoma" font-size="12" lengthAdjust="spacing" textLength="57.0762" x="282.5" y="329.9043">RESERVED</text></g><g id="DAMAGED"><rect fill="#E8F8F5" height="50" rx="12.5" ry="12.5" style="stroke:#34495E;stroke-width:0.5;" width="74.6563" x="571.5" y="578.8984"/><line style="stroke:#34495E;stroke-width:0.5;" x1="571.5" x2="646.1563" y1="603.3828" y2="603.3828"/><text fill="#000000" font-family="Tahoma" font-size="12" lengthAdjust="spacing" textLength="54.6563" x="581.5" y="595.9043">DAMAGED</text></g><g id="LOST"><rect fill="#E8F8F5" height="50" rx="12.5" ry="12.5" style="stroke:#34495E;stroke-width:0.5;" width="50" x="440" y="578.8984"/><line style="stroke:#34495E;stroke-width:0.5;" x1="440" x2="490" y1="603.3828" y2="603.3828"/><text fill="#000000" font-family="Tahoma" font-size="12" lengthAdjust="spacing" textLength="28.1543" x="450.9229" y="595.9043">LOST</text></g><ellipse cx="513" cy="715.8984" fill="none" rx="11" ry="11" style="stroke:#222222;stroke-width:1;"/><ellipse cx="513" cy="715.8984" fill="#222222" rx="6" ry="6" style="stroke:#222222;stroke-width:1;"/><!--link *start* to AVAILABLE--><g class="link" data-entity-1="*start*" data-entity-2="AVAILABLE" data-source-line="12" data-uid="lnk4" id="link_*start*_AVAILABLE"><path d="M373,80.4284 C373,99.5284 373,138.6284 373,166.7684" fill="none" id="*start*-to-AVAILABLE" style="stroke:#2E4053;stroke-width:1;"/><polygon fill="#2E4053" points="373,172.7684,377,163.7684,373,167.7684,369,163.7684,373,172.7684" style="stroke:#2E4053;stroke-width:1;"/><text fill="#000000" font-family="Tahoma" font-size="12" lengthAdjust="spacing" textLength="122.7129" x="374" y="139.9043">&#3621;&#3591;&#3607;&#3632;&#3648;&#3610;&#3637;&#3618;&#3609;&#3605;&#3633;&#3623;&#3648;&#3621;&#3656;&#3617;&#3648;&#3586;&#3657;&#3634;&#3588;&#3621;&#3633;&#3591;</text></g><!--link AVAILABLE to ON_LOAN--><g class="link" data-entity-1="AVAILABLE" data-entity-2="ON_LOAN" data-source-line="14" data-uid="lnk6" id="link_AVAILABLE_ON_LOAN"><path d="M333.43,199.0184 C252.07,200.2084 70.39,207.9484 32,252.8984 C23.34,263.0384 25.5,271.2584 32,282.8984 C104.23,412.1584 293.685,448.6051 375.375,458.6651" fill="none" id="AVAILABLE-to-ON_LOAN" style="stroke:#2E4053;stroke-width:1;"/><polygon fill="#2E4053" points="381.33,459.3984,372.8864,454.3284,376.3675,458.7873,371.9086,462.2684,381.33,459.3984" style="stroke:#2E4053;stroke-width:1;"/><text fill="#000000" font-family="Tahoma" font-size="12" lengthAdjust="spacing" textLength="91.3242" x="104" y="342.9043">borrow() (BR-04)</text></g><!--link ON_LOAN to AVAILABLE--><g class="link" data-entity-1="ON_LOAN" data-entity-2="AVAILABLE" data-source-line="21" data-uid="lnk12" id="link_ON_LOAN_AVAILABLE"><path d="M454.77,451.4084 C541.62,422.4384 746.75,342.3584 672,252.8984 C639.4,213.8884 492.3851,203.2519 418.7651,200.2619" fill="none" id="ON_LOAN-to-AVAILABLE" style="stroke:#2E4053;stroke-width:1;"/><polygon fill="#2E4053" points="412.77,200.0184,421.6003,204.3804,417.7659,200.2213,421.9249,196.387,412.77,200.0184" style="stroke:#2E4053;stroke-width:1;"/><text fill="#000000" font-family="Tahoma" font-size="12" lengthAdjust="spacing" textLength="67.6289" x="684" y="335.9043">returnBook()</text><text fill="#000000" font-family="Tahoma" font-size="12" lengthAdjust="spacing" textLength="60.334" x="687.6475" y="350.3887">[&#3626;&#3616;&#3634;&#3614;&#3611;&#3585;&#3605;&#3636;]</text></g><!--link AVAILABLE to RESERVED--><g class="link" data-entity-1="AVAILABLE" data-entity-2="RESERVED" data-source-line="15" data-uid="lnk8" id="link_AVAILABLE_RESERVED"><path d="M333.24,199.3284 C254.34,201.1084 82.43,209.9584 46,252.8984 C37.37,263.0684 37.57,272.5684 46,282.8984 C74.14,317.3584 199.8434,329.9879 266.3534,334.4379" fill="none" id="AVAILABLE-to-RESERVED" style="stroke:#2E4053;stroke-width:1;"/><polygon fill="#2E4053" points="272.34,334.8384,263.6271,330.2465,267.3512,334.5046,263.093,338.2287,272.34,334.8384" style="stroke:#2E4053;stroke-width:1;"/><text fill="#000000" font-family="Tahoma" font-size="12" lengthAdjust="spacing" textLength="184.9863" x="47" y="272.9043">&#3585;&#3633;&#3609;&#3605;&#3633;&#3623;&#3648;&#3621;&#3656;&#3617;&#3651;&#3627;&#3657;&#3588;&#3636;&#3623;&#3592;&#3629;&#3591;&#3621;&#3635;&#3604;&#3633;&#3610;&#3649;&#3619;&#3585; (BR-10)</text></g><!--link RESERVED to AVAILABLE--><g class="link" data-entity-1="RESERVED" data-entity-2="AVAILABLE" data-source-line="18" data-uid="lnk10" id="link_RESERVED_AVAILABLE"><path d="M287.11,312.6784 C273.18,295.5184 260.43,272.2084 272,252.8984 C285.29,230.7284 305.485,219.1817 327.695,211.1817" fill="none" id="RESERVED-to-AVAILABLE" style="stroke:#2E4053;stroke-width:1;"/><polygon fill="#2E4053" points="333.34,209.1484,323.517,208.4351,328.6359,210.8429,326.2281,215.9617,333.34,209.1484" style="stroke:#2E4053;stroke-width:1;"/><text fill="#000000" font-family="Tahoma" font-size="12" lengthAdjust="spacing" textLength="45.8145" x="327.1377" y="265.9043">&#3618;&#3585;&#3648;&#3621;&#3636;&#3585;&#3588;&#3636;&#3623;</text><text fill="#000000" font-family="Tahoma" font-size="12" lengthAdjust="spacing" textLength="154.0898" x="273" y="280.3887">/ Reservation -&gt; CANCELLED</text></g><!--link RESERVED to AVAILABLE--><g class="link" data-entity-1="RESERVED" data-entity-2="AVAILABLE" data-source-line="19" data-uid="lnk11" id="link_RESERVED_AVAILABLE"><path d="M349.57,330.9584 C377.69,324.3984 413.91,310.7884 432,282.8984 C445.29,262.4184 432.0238,243.6935 412.5738,227.0935" fill="none" id="RESERVED-to-AVAILABLE-1" style="stroke:#2E4053;stroke-width:1;"/><polygon fill="#2E4053" points="408.01,223.1984,412.259,232.0836,411.8132,226.4443,417.4524,225.9985,408.01,223.1984" style="stroke:#2E4053;stroke-width:1;"/><text fill="#000000" font-family="Tahoma" font-size="12" lengthAdjust="spacing" textLength="58.3359" x="520.9209" y="265.9043">&#3627;&#3617;&#3604;&#3648;&#3623;&#3621;&#3634;&#3619;&#3633;&#3610;</text><text fill="#000000" font-family="Tahoma" font-size="12" lengthAdjust="spacing" textLength="226.1777" x="437" y="280.3887">/ Reservation -&gt; EXPIRED; advance queue</text></g><!--link RESERVED to ON_LOAN--><g class="link" data-entity-1="RESERVED" data-entity-2="ON_LOAN" data-source-line="17" data-uid="lnk9" id="link_RESERVED_ON_LOAN"><path d="M331.88,363.0984 C350.74,384.9484 374.4099,412.3861 393.2499,434.2161" fill="none" id="RESERVED-to-ON_LOAN" style="stroke:#2E4053;stroke-width:1;"/><polygon fill="#2E4053" points="397.17,438.7584,394.318,429.3316,393.9032,434.9732,388.2616,434.5584,397.17,438.7584" style="stroke:#2E4053;stroke-width:1;"/><text fill="#000000" font-family="Tahoma" font-size="12" lengthAdjust="spacing" textLength="179.959" x="371" y="405.9043">&#3648;&#3592;&#3657;&#3634;&#3586;&#3629;&#3591;&#3588;&#3636;&#3623; READY &#3618;&#3639;&#3617;&#3616;&#3634;&#3618;&#3651;&#3609; 48 &#3594;&#3617;.</text></g><!--link ON_LOAN to DAMAGED--><g class="link" data-entity-1="ON_LOAN" data-entity-2="DAMAGED" data-source-line="22" data-uid="lnk14" id="link_ON_LOAN_DAMAGED"><path d="M454.68,469.7184 C488.32,475.8684 537.7,489.4784 570,518.8984 C587.47,534.8184 596.0264,554.3984 601.5964,573.0884" fill="none" id="ON_LOAN-to-DAMAGED" style="stroke:#2E4053;stroke-width:1;"/><polygon fill="#2E4053" points="603.31,578.8384,604.5729,569.0709,601.882,574.0467,596.9062,571.3557,603.31,578.8384" style="stroke:#2E4053;stroke-width:1;"/><text fill="#000000" font-family="Tahoma" font-size="12" lengthAdjust="spacing" textLength="67.6289" x="591" y="531.9043">returnBook()</text><text fill="#000000" font-family="Tahoma" font-size="12" lengthAdjust="spacing" textLength="35.0625" x="607.2832" y="546.3887">[&#3594;&#3635;&#3619;&#3640;&#3604;]</text></g><!--link ON_LOAN to LOST--><g class="link" data-entity-1="ON_LOAN" data-entity-2="LOST" data-source-line="23" data-uid="lnk16" id="link_ON_LOAN_LOST"><path d="M412.18,488.9284 C409.17,506.2084 407.49,529.7384 415,548.8984 C420.13,561.9884 425.7331,569.6626 435.4131,578.8726" fill="none" id="ON_LOAN-to-LOST" style="stroke:#2E4053;stroke-width:1;"/><polygon fill="#2E4053" points="439.76,583.0084,435.9969,573.9068,436.1376,579.5619,430.4825,579.7026,439.76,583.0084" style="stroke:#2E4053;stroke-width:1;"/><text fill="#000000" font-family="Tahoma" font-size="12" lengthAdjust="spacing" textLength="149.7246" x="416" y="538.9043">&#3649;&#3592;&#3657;&#3591;&#3627;&#3634;&#3618; / &#3648;&#3585;&#3636;&#3609; 60 &#3623;&#3633;&#3609; (BR-08)</text></g><!--link DAMAGED to AVAILABLE--><g class="link" data-entity-1="DAMAGED" data-entity-2="AVAILABLE" data-source-line="25" data-uid="lnk17" id="link_DAMAGED_AVAILABLE"><path d="M637.89,578.5484 C692.07,529.7384 800.02,415.7884 760,312.8984 C746.89,279.1884 736.83,270.0884 705,252.8984 C655.03,225.9184 495.3173,209.2897 418.5973,202.5997" fill="none" id="DAMAGED-to-AVAILABLE" style="stroke:#2E4053;stroke-width:1;"/><polygon fill="#2E4053" points="412.62,202.0784,421.2385,206.8452,417.6011,202.5128,421.9335,198.8754,412.62,202.0784" style="stroke:#2E4053;stroke-width:1;"/><text fill="#000000" font-family="Tahoma" font-size="12" lengthAdjust="spacing" textLength="45.6914" x="765" y="405.9043">&#3595;&#3656;&#3629;&#3617;&#3648;&#3626;&#3619;&#3655;&#3592;</text></g><!--link DAMAGED to *end*--><g class="link" data-entity-1="DAMAGED" data-entity-2="*end*" data-source-line="26" data-uid="lnk19" id="link_DAMAGED_*end*"><path d="M587.93,629.0384 C566.3,653.8284 537.8158,686.4684 523.7958,702.5284" fill="none" id="DAMAGED-to-*end*" style="stroke:#2E4053;stroke-width:1;"/><polygon fill="#2E4053" points="519.85,707.0484,528.7821,702.899,523.1382,703.2818,522.7554,697.6379,519.85,707.0484" style="stroke:#2E4053;stroke-width:1;"/><text fill="#000000" font-family="Tahoma" font-size="12" lengthAdjust="spacing" textLength="102.3867" x="562" y="671.9043">&#3592;&#3635;&#3627;&#3609;&#3656;&#3634;&#3618;&#3629;&#3629;&#3585;&#3592;&#3634;&#3585;&#3588;&#3621;&#3633;&#3591;</text></g><!--link LOST to *end*--><g class="link" data-entity-1="LOST" data-entity-2="*end*" data-source-line="27" data-uid="lnk20" id="link_LOST_*end*"><path d="M458.45,629.0684 C455.95,643.1284 455.13,660.7884 462,674.8984 C470.57,692.5084 485.659,702.0246 497.899,708.0046" fill="none" id="LOST-to-*end*" style="stroke:#2E4053;stroke-width:1;"/><polygon fill="#2E4053" points="503.29,710.6384,496.9594,703.0937,498.7975,708.4436,493.4476,710.2817,503.29,710.6384" style="stroke:#2E4053;stroke-width:1;"/><text fill="#000000" font-family="Tahoma" font-size="12" lengthAdjust="spacing" textLength="55.4063" x="463" y="671.9043">&#3605;&#3633;&#3604;&#3592;&#3635;&#3627;&#3609;&#3656;&#3634;&#3618;</text></g><!--SRC=[XLJHIXjH47tVhnZiIrAmHarAgb3O96iHqbWIaHQLSZLNNOnxxMQZs58mAXWjVOkLM2ZLKWGbq5h5ktzpwPVqpcnMivgsBo7Ct3bppioPzMolmg7aCOz3pcQBBbk1tvjDo0Ynd1Mh6n1Jya39dqgUAdzJoU_ARoXvhEIvaYsAxofvfkIraksuOLINRMUL8KYPBx1QnHiJZbTWAnpw9jcIM65zlP-KxBSS1eUwajKbLXRhjhC82wnIvTqP8llE0CYm-UL5LzISSbPKX0iFhFHOUYo56U6MkTk93YUJJrAMZfgkAzOxmI4hcKWD6-yDO_hXBFJtFmLpoXpFcvcy1IE0Gb7PeP8_IFUHabTAdf3eNlF0_rlAtrFoGiaTAiVP6COjAlQOABpEJvW5tM5E89bO76APOdyY6R_pi6YLhEAKbICkTGBxM-TjN0PsrcqlCIjrl4tqDOjVIZQfwaZv6kURHgEMWmczhfikKMw4tmZLR8Le7NpDpSoz0fh6DNdXAxqx8IejIAPrRbyd7aNne_CzGLc13aIjty3FE0DGv5NkhZ7F5WxeognPo5hvl9Nx5-0vKMaIvYd1Nf1SbDu3qthvOhnevKQ1bTUOCy_XJOtNk664KxZRmELUpNNmB6Bn6MUQJ1_e_gBaPnAWjtCv6m78cS_DPxJ4U-Nxj1hDJshIqQhyH6cIjb0Fjx1Byd36C11ifqx3Qi7Z191Sz4TWfRJUQzZt_fG-a6lQeMNFa8AluHkH6Zm9VDqWadJgM4PBnk8s4GWYzOZVYNitH63PPayimt24FcLMXSAWFa-YyubIBRmx_BqY_Jhear-sSN0w4ZWDFr3c6hChRCwksDv6iLRXXDEnB6INcEs0MC3bhmgdQWVlHhhCw- -GQVPe77kqpOlmwFzp0jJga3Ws292-XWXuJ94UZXo5hZDj8mLysBejkg4JMfUUjSWc7udBWS6TCk3WZ3y0]--></g></svg>