<svg xmlns="http://www.w3.org/2000/svg" xmlns:xlink="http://www.w3.org/1999/xlink" contentStyleType="text/css" data-diagram-type="CLASS" height="1041px" preserveAspectRatio="none" style="width:1209px;height:1041px;background:#FFFFFF;" version="1.1" viewBox="0 0 1209 1041" width="1209px" zoomAndPan="magnify"><title>ER Diagram &#8212; LibraFlow database (V1-V9)</title><defs/><g><text fill="#000000" font-family="Tahoma" font-size="14" font-weight="bold" lengthAdjust="spacing" textLength="300.4326" x="447.4634" y="24.0068">ER Diagram &#8212; LibraFlow database (V1-V9)</text><!--class users--><g class="entity" data-entity="users" data-source-line="10" data-uid="ent0002" id="entity_users"><rect fill="#F1F1F1" height="156.3594" rx="2.5" ry="2.5" style="stroke:#181818;stroke-width:0.5;" width="295.9727" x="144" y="188.8984"/><text fill="#000000" font-family="Tahoma" font-size="12" lengthAdjust="spacing" textLength="28.043" x="277.9648" y="205.9043">users</text><line style="stroke:#181818;stroke-width:0.5;" x1="145" x2="438.9727" y1="213.3828" y2="213.3828"/><ellipse cx="155" cy="226.125" fill="#000000" rx="3" ry="3" style="stroke:#000000;stroke-width:1;"/><text fill="#000000" font-family="Tahoma" font-size="12" lengthAdjust="spacing" textLength="110.3613" x="163" y="229.3887">id : BIGSERIAL &#171;PK&#187;</text><line style="stroke:#181818;stroke-width:1;" x1="145" x2="438.9727" y1="235.8672" y2="235.8672"/><ellipse cx="155" cy="248.6094" fill="#000000" rx="3" ry="3" style="stroke:#000000;stroke-width:1;"/><text fill="#000000" font-family="Tahoma" font-size="12" lengthAdjust="spacing" textLength="170.291" x="163" y="251.873">username : VARCHAR(50) &#171;UK&#187;</text><ellipse cx="155" cy="263.0938" fill="#000000" rx="3" ry="3" style="stroke:#000000;stroke-width:1;"/><text fill="#000000" font-family="Tahoma" font-size="12" lengthAdjust="spacing" textLength="173.9473" x="163" y="266.3574">password_hash : VARCHAR(255)</text><ellipse cx="155" cy="277.5781" fill="#000000" rx="3" ry="3" style="stroke:#000000;stroke-width:1;"/><text fill="#000000" font-family="Tahoma" font-size="12" lengthAdjust="spacing" textLength="152.9473" x="163" y="280.8418">email : VARCHAR(100) &#171;UK&#187;</text><text fill="#000000" font-family="Tahoma" font-size="12" lengthAdjust="spacing" textLength="154.5234" x="163" y="295.3262">is_active : BOOLEAN = TRUE</text><text fill="#000000" font-family="Tahoma" font-size="12" lengthAdjust="spacing" textLength="270.9727" x="163" y="309.8105">created_at : TIMESTAMP = CURRENT_TIMESTAMP</text><ellipse cx="155" cy="321.0313" fill="#000000" rx="3" ry="3" style="stroke:#000000;stroke-width:1;"/><text fill="#000000" font-family="Tahoma" font-size="12" lengthAdjust="spacing" textLength="168.3926" x="163" y="324.2949">role : VARCHAR(20) = MEMBER</text><text fill="#000000" font-family="Tahoma" font-size="12" lengthAdjust="spacing" textLength="221.1621" x="163" y="338.7793">member_tier : VARCHAR(20) = STUDENT</text></g><!--class user_profiles--><g class="entity" data-entity="user_profiles" data-source-line="22" data-uid="ent0003" id="entity_user_profiles"><rect fill="#F1F1F1" height="112.9063" rx="2.5" ry="2.5" style="stroke:#181818;stroke-width:0.5;" width="190.9199" x="334.5" y="411.8984"/><text fill="#000000" font-family="Tahoma" font-size="12" lengthAdjust="spacing" textLength="67.6875" x="396.1162" y="428.9043">user_profiles</text><line style="stroke:#181818;stroke-width:0.5;" x1="335.5" x2="524.4199" y1="436.3828" y2="436.3828"/><ellipse cx="345.5" cy="449.125" fill="#000000" rx="3" ry="3" style="stroke:#000000;stroke-width:1;"/><text fill="#000000" font-family="Tahoma" font-size="12" lengthAdjust="spacing" textLength="141.2813" x="353.5" y="452.3887">user_id : BIGINT &#171;PK, FK&#187;</text><line style="stroke:#181818;stroke-width:1;" x1="335.5" x2="524.4199" y1="458.8672" y2="458.8672"/><ellipse cx="345.5" cy="471.6094" fill="#000000" rx="3" ry="3" style="stroke:#000000;stroke-width:1;"/><text fill="#000000" font-family="Tahoma" font-size="12" lengthAdjust="spacing" textLength="148.5293" x="353.5" y="474.873">first_name : VARCHAR(100)</text><ellipse cx="345.5" cy="486.0938" fill="#000000" rx="3" ry="3" style="stroke:#000000;stroke-width:1;"/><text fill="#000000" font-family="Tahoma" font-size="12" lengthAdjust="spacing" textLength="146.6836" x="353.5" y="489.3574">last_name : VARCHAR(100)</text><text fill="#000000" font-family="Tahoma" font-size="12" lengthAdjust="spacing" textLength="165.9199" x="353.5" y="503.8418">phone_number : VARCHAR(20)</text><text fill="#000000" font-family="Tahoma" font-size="12" lengthAdjust="spacing" textLength="80.373" x="353.5" y="518.3262">address : TEXT</text></g><!--class categories--><g class="entity" data-entity="categories" data-source-line="31" data-uid="ent0004" id="entity_categories"><rect fill="#F1F1F1" height="83.9375" rx="2.5" ry="2.5" style="stroke:#181818;stroke-width:0.5;" width="174.8418" x="664.5" y="44.8984"/><text fill="#000000" font-family="Tahoma" font-size="12" lengthAdjust="spacing" textLength="54.0527" x="724.8945" y="61.9043">categories</text><line style="stroke:#181818;stroke-width:0.5;" x1="665.5" x2="838.3418" y1="69.3828" y2="69.3828"/><ellipse cx="675.5" cy="82.125" fill="#000000" rx="3" ry="3" style="stroke:#000000;stroke-width:1;"/><text fill="#000000" font-family="Tahoma" font-size="12" lengthAdjust="spacing" textLength="110.3613" x="683.5" y="85.3887">id : BIGSERIAL &#171;PK&#187;</text><line style="stroke:#181818;stroke-width:1;" x1="665.5" x2="838.3418" y1="91.8672" y2="91.8672"/><ellipse cx="675.5" cy="104.6094" fill="#000000" rx="3" ry="3" style="stroke:#000000;stroke-width:1;"/><text fill="#000000" font-family="Tahoma" font-size="12" lengthAdjust="spacing" textLength="147.6035" x="683.5" y="107.873">name : VARCHAR(80) &#171;UK&#187;</text><text fill="#000000" font-family="Tahoma" font-size="12" lengthAdjust="spacing" textLength="149.8418" x="683.5" y="122.3574">description : VARCHAR(255)</text></g><!--class publishers--><g class="entity" data-entity="publishers" data-source-line="38" data-uid="ent0005" id="entity_publishers"><rect fill="#F1F1F1" height="83.9375" rx="2.5" ry="2.5" style="stroke:#181818;stroke-width:0.5;" width="179.1543" x="874.5" y="44.8984"/><text fill="#000000" font-family="Tahoma" font-size="12" lengthAdjust="spacing" textLength="53.4844" x="937.335" y="61.9043">publishers</text><line style="stroke:#181818;stroke-width:0.5;" x1="875.5" x2="1052.6543" y1="69.3828" y2="69.3828"/><ellipse cx="885.5" cy="82.125" fill="#000000" rx="3" ry="3" style="stroke:#000000;stroke-width:1;"/><text fill="#000000" font-family="Tahoma" font-size="12" lengthAdjust="spacing" textLength="110.3613" x="893.5" y="85.3887">id : BIGSERIAL &#171;PK&#187;</text><line style="stroke:#181818;stroke-width:1;" x1="875.5" x2="1052.6543" y1="91.8672" y2="91.8672"/><ellipse cx="885.5" cy="104.6094" fill="#000000" rx="3" ry="3" style="stroke:#000000;stroke-width:1;"/><text fill="#000000" font-family="Tahoma" font-size="12" lengthAdjust="spacing" textLength="154.1543" x="893.5" y="107.873">name : VARCHAR(120) &#171;UK&#187;</text><text fill="#000000" font-family="Tahoma" font-size="12" lengthAdjust="spacing" textLength="125.5371" x="893.5" y="122.3574">country : VARCHAR(60)</text></g><!--class authors--><g class="entity" data-entity="authors" data-source-line="45" data-uid="ent0006" id="entity_authors"><rect fill="#F1F1F1" height="98.4219" rx="2.5" ry="2.5" style="stroke:#181818;stroke-width:0.5;" width="206.3594" x="996" y="217.8984"/><text fill="#000000" font-family="Tahoma" font-size="12" lengthAdjust="spacing" textLength="39.8906" x="1079.2344" y="234.9043">authors</text><line style="stroke:#181818;stroke-width:0.5;" x1="997" x2="1201.3594" y1="242.3828" y2="242.3828"/><ellipse cx="1007" cy="255.125" fill="#000000" rx="3" ry="3" style="stroke:#000000;stroke-width:1;"/><text fill="#000000" font-family="Tahoma" font-size="12" lengthAdjust="spacing" textLength="110.3613" x="1015" y="258.3887">id : BIGSERIAL &#171;PK&#187;</text><line style="stroke:#181818;stroke-width:1;" x1="997" x2="1201.3594" y1="264.8672" y2="264.8672"/><ellipse cx="1007" cy="277.6094" fill="#000000" rx="3" ry="3" style="stroke:#000000;stroke-width:1;"/><text fill="#000000" font-family="Tahoma" font-size="12" lengthAdjust="spacing" textLength="181.3594" x="1015" y="280.873">full_name : VARCHAR(120) &#171;IDX&#187;</text><text fill="#000000" font-family="Tahoma" font-size="12" lengthAdjust="spacing" textLength="140.5137" x="1015" y="295.3574">nationality : VARCHAR(60)</text><text fill="#000000" font-family="Tahoma" font-size="12" lengthAdjust="spacing" textLength="91.9043" x="1015" y="309.8418">biography : TEXT</text></g><!--class books--><g class="entity" data-entity="books" data-source-line="53" data-uid="ent0007" id="entity_books"><rect fill="#F1F1F1" height="156.3594" rx="2.5" ry="2.5" style="stroke:#181818;stroke-width:0.5;" width="204.7891" x="755.5" y="188.8984"/><text fill="#000000" font-family="Tahoma" font-size="12" lengthAdjust="spacing" textLength="30.9961" x="842.3965" y="205.9043">books</text><line style="stroke:#181818;stroke-width:0.5;" x1="756.5" x2="959.2891" y1="213.3828" y2="213.3828"/><ellipse cx="766.5" cy="226.125" fill="#000000" rx="3" ry="3" style="stroke:#000000;stroke-width:1;"/><text fill="#000000" font-family="Tahoma" font-size="12" lengthAdjust="spacing" textLength="110.3613" x="774.5" y="229.3887">id : BIGSERIAL &#171;PK&#187;</text><line style="stroke:#181818;stroke-width:1;" x1="756.5" x2="959.2891" y1="235.8672" y2="235.8672"/><ellipse cx="766.5" cy="248.6094" fill="#000000" rx="3" ry="3" style="stroke:#000000;stroke-width:1;"/><text fill="#000000" font-family="Tahoma" font-size="12" lengthAdjust="spacing" textLength="139.6406" x="774.5" y="251.873">isbn : VARCHAR(20) &#171;UK&#187;</text><ellipse cx="766.5" cy="263.0938" fill="#000000" rx="3" ry="3" style="stroke:#000000;stroke-width:1;"/><text fill="#000000" font-family="Tahoma" font-size="12" lengthAdjust="spacing" textLength="149.2559" x="774.5" y="266.3574">title : VARCHAR(200) &#171;IDX&#187;</text><text fill="#000000" font-family="Tahoma" font-size="12" lengthAdjust="spacing" textLength="98.1914" x="774.5" y="280.8418">publish_year : INT</text><text fill="#000000" font-family="Tahoma" font-size="12" lengthAdjust="spacing" textLength="120.7559" x="774.5" y="295.3262">price : NUMERIC(10,2)</text><ellipse cx="766.5" cy="306.5469" fill="#000000" rx="3" ry="3" style="stroke:#000000;stroke-width:1;"/><text fill="#000000" font-family="Tahoma" font-size="12" lengthAdjust="spacing" textLength="170.1211" x="774.5" y="309.8105">category_id : BIGINT &#171;FK, IDX&#187;</text><ellipse cx="766.5" cy="321.0313" fill="#000000" rx="3" ry="3" style="stroke:#000000;stroke-width:1;"/><text fill="#000000" font-family="Tahoma" font-size="12" lengthAdjust="spacing" textLength="172.6348" x="774.5" y="324.2949">publisher_id : BIGINT &#171;FK, IDX&#187;</text><ellipse cx="766.5" cy="335.5156" fill="#000000" rx="3" ry="3" style="stroke:#000000;stroke-width:1;"/><text fill="#000000" font-family="Tahoma" font-size="12" lengthAdjust="spacing" textLength="179.7891" x="774.5" y="338.7793">created_at : TIMESTAMP = now()</text></g><!--class book_authors--><g class="entity" data-entity="book_authors" data-source-line="65" data-uid="ent0008" id="entity_book_authors"><rect fill="#F1F1F1" height="61.4531" rx="2.5" ry="2.5" style="stroke:#181818;stroke-width:0.5;" width="178.1289" x="988" y="437.8984"/><text fill="#000000" font-family="Tahoma" font-size="12" lengthAdjust="spacing" textLength="72.082" x="1041.0234" y="454.9043">book_authors</text><line style="stroke:#181818;stroke-width:0.5;" x1="989" x2="1165.1289" y1="462.3828" y2="462.3828"/><ellipse cx="999" cy="475.125" fill="#000000" rx="3" ry="3" style="stroke:#000000;stroke-width:1;"/><text fill="#000000" font-family="Tahoma" font-size="12" lengthAdjust="spacing" textLength="144.2344" x="1007" y="478.3887">book_id : BIGINT &#171;PK, FK&#187;</text><ellipse cx="999" cy="489.6094" fill="#000000" rx="3" ry="3" style="stroke:#000000;stroke-width:1;"/><text fill="#000000" font-family="Tahoma" font-size="12" lengthAdjust="spacing" textLength="153.1289" x="1007" y="492.873">author_id : BIGINT &#171;PK, FK&#187;</text></g><!--class book_copies--><g class="entity" data-entity="book_copies" data-source-line="70" data-uid="ent0009" id="entity_book_copies"><rect fill="#F1F1F1" height="127.3906" rx="2.5" ry="2.5" style="stroke:#181818;stroke-width:0.5;" width="196.3281" x="632" y="404.8984"/><text fill="#000000" font-family="Tahoma" font-size="12" lengthAdjust="spacing" textLength="65.291" x="697.5186" y="421.9043">book_copies</text><line style="stroke:#181818;stroke-width:0.5;" x1="633" x2="827.3281" y1="429.3828" y2="429.3828"/><ellipse cx="643" cy="442.125" fill="#000000" rx="3" ry="3" style="stroke:#000000;stroke-width:1;"/><text fill="#000000" font-family="Tahoma" font-size="12" lengthAdjust="spacing" textLength="110.3613" x="651" y="445.3887">id : BIGSERIAL &#171;PK&#187;</text><line style="stroke:#181818;stroke-width:1;" x1="633" x2="827.3281" y1="451.8672" y2="451.8672"/><ellipse cx="643" cy="464.6094" fill="#000000" rx="3" ry="3" style="stroke:#000000;stroke-width:1;"/><text fill="#000000" font-family="Tahoma" font-size="12" lengthAdjust="spacing" textLength="160.4766" x="651" y="467.873">barcode : VARCHAR(30) &#171;UK&#187;</text><ellipse cx="643" cy="479.0938" fill="#000000" rx="3" ry="3" style="stroke:#000000;stroke-width:1;"/><text fill="#000000" font-family="Tahoma" font-size="12" lengthAdjust="spacing" textLength="123.1816" x="651" y="482.3574">book_id : BIGINT &#171;FK&#187;</text><ellipse cx="643" cy="493.5781" fill="#000000" rx="3" ry="3" style="stroke:#000000;stroke-width:1;"/><text fill="#000000" font-family="Tahoma" font-size="12" lengthAdjust="spacing" textLength="171.3281" x="651" y="496.8418">status : VARCHAR(20) &#171;CHECK&#187;</text><text fill="#000000" font-family="Tahoma" font-size="12" lengthAdjust="spacing" textLength="158.3203" x="651" y="511.3262">shelf_location : VARCHAR(30)</text><ellipse cx="643" cy="522.5469" fill="#000000" rx="3" ry="3" style="stroke:#000000;stroke-width:1;"/><text fill="#000000" font-family="Tahoma" font-size="12" lengthAdjust="spacing" textLength="102.8555" x="651" y="525.8105">acquired_at : DATE</text></g><!--class loans--><g class="entity" data-entity="loans" data-source-line="80" data-uid="ent0010" id="entity_loans"><rect fill="#F1F1F1" height="127.3906" rx="2.5" ry="2.5" style="stroke:#181818;stroke-width:0.5;" width="291.7305" x="7" y="404.8984"/><text fill="#000000" font-family="Tahoma" font-size="12" lengthAdjust="spacing" textLength="27.6035" x="139.0635" y="421.9043">loans</text><line style="stroke:#181818;stroke-width:0.5;" x1="8" x2="297.7305" y1="429.3828" y2="429.3828"/><ellipse cx="18" cy="442.125" fill="#000000" rx="3" ry="3" style="stroke:#000000;stroke-width:1;"/><text fill="#000000" font-family="Tahoma" font-size="12" lengthAdjust="spacing" textLength="110.3613" x="26" y="445.3887">id : BIGSERIAL &#171;PK&#187;</text><line style="stroke:#181818;stroke-width:1;" x1="8" x2="297.7305" y1="451.8672" y2="451.8672"/><ellipse cx="18" cy="464.6094" fill="#000000" rx="3" ry="3" style="stroke:#000000;stroke-width:1;"/><text fill="#000000" font-family="Tahoma" font-size="12" lengthAdjust="spacing" textLength="172.0195" x="26" y="467.873">loan_code : VARCHAR(20) &#171;UK&#187;</text><ellipse cx="18" cy="479.0938" fill="#000000" rx="3" ry="3" style="stroke:#000000;stroke-width:1;"/><text fill="#000000" font-family="Tahoma" font-size="12" lengthAdjust="spacing" textLength="147.1934" x="26" y="482.3574">user_id : BIGINT &#171;FK, IDX&#187;</text><text fill="#000000" font-family="Tahoma" font-size="12" lengthAdjust="spacing" textLength="140.3379" x="26" y="496.8418">librarian_id : BIGINT &#171;FK&#187;</text><ellipse cx="18" cy="508.0625" fill="#000000" rx="3" ry="3" style="stroke:#000000;stroke-width:1;"/><text fill="#000000" font-family="Tahoma" font-size="12" lengthAdjust="spacing" textLength="266.7305" x="26" y="511.3262">loan_date : TIMESTAMP = CURRENT_TIMESTAMP</text><ellipse cx="18" cy="522.5469" fill="#000000" rx="3" ry="3" style="stroke:#000000;stroke-width:1;"/><text fill="#000000" font-family="Tahoma" font-size="12" lengthAdjust="spacing" textLength="198.293" x="26" y="525.8105">status : VARCHAR(20) &#171;CHECK, IDX&#187;</text></g><!--class loan_items--><g class="entity" data-entity="loan_items" data-source-line="90" data-uid="ent0011" id="entity_loan_items"><rect fill="#F1F1F1" height="127.3906" rx="2.5" ry="2.5" style="stroke:#181818;stroke-width:0.5;" width="260.5703" x="126.5" y="599.3984"/><text fill="#000000" font-family="Tahoma" font-size="12" lengthAdjust="spacing" textLength="57.3047" x="228.1328" y="616.4043">loan_items</text><line style="stroke:#181818;stroke-width:0.5;" x1="127.5" x2="386.0703" y1="623.8828" y2="623.8828"/><ellipse cx="137.5" cy="636.625" fill="#000000" rx="3" ry="3" style="stroke:#000000;stroke-width:1;"/><text fill="#000000" font-family="Tahoma" font-size="12" lengthAdjust="spacing" textLength="110.3613" x="145.5" y="639.8887">id : BIGSERIAL &#171;PK&#187;</text><line style="stroke:#181818;stroke-width:1;" x1="127.5" x2="386.0703" y1="646.3672" y2="646.3672"/><ellipse cx="137.5" cy="659.1094" fill="#000000" rx="3" ry="3" style="stroke:#000000;stroke-width:1;"/><text fill="#000000" font-family="Tahoma" font-size="12" lengthAdjust="spacing" textLength="146.7539" x="145.5" y="662.373">loan_id : BIGINT &#171;FK, IDX&#187;</text><ellipse cx="137.5" cy="673.5938" fill="#000000" rx="3" ry="3" style="stroke:#000000;stroke-width:1;"/><text fill="#000000" font-family="Tahoma" font-size="12" lengthAdjust="spacing" textLength="181.3594" x="145.5" y="676.8574">book_copy_id : BIGINT &#171;FK, IDX&#187;</text><ellipse cx="137.5" cy="688.0781" fill="#000000" rx="3" ry="3" style="stroke:#000000;stroke-width:1;"/><text fill="#000000" font-family="Tahoma" font-size="12" lengthAdjust="spacing" textLength="127.3594" x="145.5" y="691.3418">due_date : DATE &#171;IDX&#187;</text><text fill="#000000" font-family="Tahoma" font-size="12" lengthAdjust="spacing" textLength="102.9902" x="145.5" y="705.8262">returned_at : DATE</text><ellipse cx="137.5" cy="717.0469" fill="#000000" rx="3" ry="3" style="stroke:#000000;stroke-width:1;"/><text fill="#000000" font-family="Tahoma" font-size="12" lengthAdjust="spacing" textLength="235.5703" x="145.5" y="720.3105">renew_count : SMALLINT = 0 &#171;CHECK 0..2&#187;</text></g><!--class fines--><g class="entity" data-entity="fines" data-source-line="100" data-uid="ent0012" id="entity_fines"><rect fill="#F1F1F1" height="141.875" rx="2.5" ry="2.5" style="stroke:#181818;stroke-width:0.5;" width="295.9727" x="109" y="793.8984"/><text fill="#000000" font-family="Tahoma" font-size="12" lengthAdjust="spacing" textLength="24.9258" x="244.5234" y="810.9043">fines</text><line style="stroke:#181818;stroke-width:0.5;" x1="110" x2="403.9727" y1="818.3828" y2="818.3828"/><ellipse cx="120" cy="831.125" fill="#000000" rx="3" ry="3" style="stroke:#000000;stroke-width:1;"/><text fill="#000000" font-family="Tahoma" font-size="12" lengthAdjust="spacing" textLength="110.3613" x="128" y="834.3887">id : BIGSERIAL &#171;PK&#187;</text><line style="stroke:#181818;stroke-width:1;" x1="110" x2="403.9727" y1="840.8672" y2="840.8672"/><ellipse cx="120" cy="853.6094" fill="#000000" rx="3" ry="3" style="stroke:#000000;stroke-width:1;"/><text fill="#000000" font-family="Tahoma" font-size="12" lengthAdjust="spacing" textLength="202.4414" x="128" y="856.873">loan_item_id : BIGINT &#171;UK, FK in V8&#187;</text><ellipse cx="120" cy="868.0938" fill="#000000" rx="3" ry="3" style="stroke:#000000;stroke-width:1;"/><text fill="#000000" font-family="Tahoma" font-size="12" lengthAdjust="spacing" textLength="135.4922" x="128" y="871.3574">amount : NUMERIC(10,2)</text><ellipse cx="120" cy="882.5781" fill="#000000" rx="3" ry="3" style="stroke:#000000;stroke-width:1;"/><text fill="#000000" font-family="Tahoma" font-size="12" lengthAdjust="spacing" textLength="104.8242" x="128" y="885.8418">overdue_days : INT</text><ellipse cx="120" cy="897.0625" fill="#000000" rx="3" ry="3" style="stroke:#000000;stroke-width:1;"/><text fill="#000000" font-family="Tahoma" font-size="12" lengthAdjust="spacing" textLength="117.5156" x="128" y="900.3262">status : VARCHAR(20)</text><ellipse cx="120" cy="911.5469" fill="#000000" rx="3" ry="3" style="stroke:#000000;stroke-width:1;"/><text fill="#000000" font-family="Tahoma" font-size="12" lengthAdjust="spacing" textLength="270.9727" x="128" y="914.8105">created_at : TIMESTAMP = CURRENT_TIMESTAMP</text><text fill="#000000" font-family="Tahoma" font-size="12" lengthAdjust="spacing" textLength="115.125" x="128" y="929.2949">paid_at : TIMESTAMP</text></g><!--class reservations--><g class="entity" data-entity="reservations" data-source-line="111" data-uid="ent0013" id="entity_reservations"><rect fill="#F1F1F1" height="141.875" rx="2.5" ry="2.5" style="stroke:#181818;stroke-width:0.5;" width="330.373" x="565" y="591.8984"/><text fill="#000000" font-family="Tahoma" font-size="12" lengthAdjust="spacing" textLength="64.2305" x="698.0713" y="608.9043">reservations</text><line style="stroke:#181818;stroke-width:0.5;" x1="566" x2="894.373" y1="616.3828" y2="616.3828"/><ellipse cx="576" cy="629.125" fill="#000000" rx="3" ry="3" style="stroke:#000000;stroke-width:1;"/><text fill="#000000" font-family="Tahoma" font-size="12" lengthAdjust="spacing" textLength="110.3613" x="584" y="632.3887">id : BIGSERIAL &#171;PK&#187;</text><line style="stroke:#181818;stroke-width:1;" x1="566" x2="894.373" y1="638.8672" y2="638.8672"/><ellipse cx="576" cy="651.6094" fill="#000000" rx="3" ry="3" style="stroke:#000000;stroke-width:1;"/><text fill="#000000" font-family="Tahoma" font-size="12" lengthAdjust="spacing" textLength="177.8379" x="584" y="654.873">user_id : BIGINT &#171;FK in V8, IDX&#187;</text><ellipse cx="576" cy="666.0938" fill="#000000" rx="3" ry="3" style="stroke:#000000;stroke-width:1;"/><text fill="#000000" font-family="Tahoma" font-size="12" lengthAdjust="spacing" textLength="180.791" x="584" y="669.3574">book_id : BIGINT &#171;FK in V8, IDX&#187;</text><text fill="#000000" font-family="Tahoma" font-size="12" lengthAdjust="spacing" textLength="231.9258" x="584" y="683.8418">reserved_copy_id : BIGINT &#171;FK in V9, IDX&#187;</text><ellipse cx="576" cy="695.0625" fill="#000000" rx="3" ry="3" style="stroke:#000000;stroke-width:1;"/><text fill="#000000" font-family="Tahoma" font-size="12" lengthAdjust="spacing" textLength="277.0957" x="584" y="698.3262">reserved_at : TIMESTAMP = CURRENT_TIMESTAMP</text><text fill="#000000" font-family="Tahoma" font-size="12" lengthAdjust="spacing" textLength="130.4473" x="584" y="712.8105">expires_at : TIMESTAMP</text><ellipse cx="576" cy="724.0313" fill="#000000" rx="3" ry="3" style="stroke:#000000;stroke-width:1;"/><text fill="#000000" font-family="Tahoma" font-size="12" lengthAdjust="spacing" textLength="305.373" x="584" y="727.2949">status : VARCHAR(20) &#171;READY requires copy and expiry&#187;</text></g><g class="entity" data-entity="GMN28" data-source-line="138" data-uid="ent0029" id="entity_GMN28"><path d="M974,643.3984 L974,682.3672 A0,0 0 0 0 974,682.3672 L1180.1445,682.3672 A0,0 0 0 0 1180.1445,682.3672 L1180.1445,653.3984 L1170.1445,643.3984 L1081,643.3984 L1077,499.2184 L1073,643.3984 L974,643.3984 A0,0 0 0 0 974,643.3984" fill="#FEFFDD" style="stroke:#181818;stroke-width:0.5;"/><path d="M1170.1445,643.3984 L1170.1445,653.3984 L1180.1445,653.3984 L1170.1445,643.3984" fill="#FEFFDD" style="stroke:#181818;stroke-width:0.5;"/><text fill="#000000" font-family="Tahoma" font-size="12" lengthAdjust="spacing" textLength="181.6758" x="980" y="660.4043">Many-to-Many: books and authors</text><text fill="#000000" font-family="Tahoma" font-size="12" lengthAdjust="spacing" textLength="185.1445" x="980" y="674.8887">Composite PK (book_id, author_id)</text></g><g class="entity" data-entity="GMN31" data-source-line="143" data-uid="ent0032" id="entity_GMN31"><path d="M144,995.8984 L144,1034.8672 A0,0 0 0 0 144,1034.8672 L369.9316,1034.8672 A0,0 0 0 0 369.9316,1034.8672 L369.9316,1005.8984 L359.9316,995.8984 L261,995.8984 L257,936.1784 L253,995.8984 L144,995.8984 A0,0 0 0 0 144,995.8984" fill="#FEFFDD" style="stroke:#181818;stroke-width:0.5;"/><path d="M359.9316,995.8984 L359.9316,1005.8984 L369.9316,1005.8984 L359.9316,995.8984" fill="#FEFFDD" style="stroke:#181818;stroke-width:0.5;"/><text fill="#000000" font-family="Tahoma" font-size="12" lengthAdjust="spacing" textLength="181.793" x="150" y="1012.9043">V5 adds UNIQUE on loan_item_id.</text><text fill="#000000" font-family="Tahoma" font-size="12" lengthAdjust="spacing" textLength="204.9316" x="150" y="1027.3887">V8 adds the foreign key to loan_items.</text></g><g class="entity" data-entity="GMN34" data-source-line="148" data-uid="ent0035" id="entity_GMN34"><path d="M543.5,830.8984 L543.5,898.8359 A0,0 0 0 0 543.5,898.8359 L916.6543,898.8359 A0,0 0 0 0 916.6543,898.8359 L916.6543,840.8984 L906.6543,830.8984 L734,830.8984 L730,734.1184 L726,830.8984 L543.5,830.8984 A0,0 0 0 0 543.5,830.8984" fill="#FEFFDD" style="stroke:#181818;stroke-width:0.5;"/><path d="M906.6543,830.8984 L906.6543,840.8984 L916.6543,840.8984 L906.6543,830.8984" fill="#FEFFDD" style="stroke:#181818;stroke-width:0.5;"/><text fill="#000000" font-family="Tahoma" font-size="12" lengthAdjust="spacing" textLength="282.1172" x="549.5" y="847.9043">V5 already has indexes and a partial unique index for</text><text fill="#000000" font-family="Tahoma" font-size="12" lengthAdjust="spacing" textLength="294.5215" x="549.5" y="862.3887">one WAITING or READY reservation per user and book.</text><text fill="#000000" font-family="Tahoma" font-size="12" lengthAdjust="spacing" textLength="320.1797" x="549.5" y="876.873">V8 adds user_id and book_id foreign keys. V9 links a READY</text><text fill="#000000" font-family="Tahoma" font-size="12" lengthAdjust="spacing" textLength="352.1543" x="549.5" y="891.3574">reservation to a physical copy and limits one READY row per copy.</text></g><!--link users to user_profiles--><g class="link" data-entity-1="users" data-entity-2="user_profiles" data-source-line="122" data-uid="lnk14" id="link_users_user_profiles"><path codeLine="122" d="M387.25,353.0884 C387.25,375.3284 387.25,383.1084 387.25,403.7984" fill="none" id="users-user_profiles" style="stroke:#181818;stroke-width:1;"/><line style="stroke:#181818;stroke-width:1;" x1="383.25" x2="391.25" y1="349.0884" y2="349.0884"/><line style="stroke:#181818;stroke-width:1;" x1="383.25" x2="391.25" y1="352.0884" y2="352.0884"/><line style="stroke:#181818;stroke-width:1;" x1="387.25" x2="387.25" y1="353.0884" y2="345.0884"/><line style="stroke:#181818;stroke-width:1;" x1="391.25" x2="383.25" y1="407.7984" y2="407.7984"/><line style="stroke:#181818;stroke-width:1;" x1="391.25" x2="383.25" y1="404.7984" y2="404.7984"/><line style="stroke:#181818;stroke-width:1;" x1="387.25" x2="387.25" y1="403.7984" y2="411.7984"/><text fill="#000000" font-family="Tahoma" font-size="12" lengthAdjust="spacing" textLength="67.2422" x="319.25" y="375.4443">PK is also FK</text></g><!--link users to loans--><g class="link" data-entity-1="users" data-entity-2="loans" data-source-line="123" data-uid="lnk15" id="link_users_loans"><path codeLine="123" d="M195.67,353.0884 C195.67,372.8984 195.67,367.9184 195.67,386.8984" fill="none" id="users-loans" style="stroke:#181818;stroke-width:1;"/><line style="stroke:#181818;stroke-width:1;" x1="191.67" x2="199.67" y1="349.0884" y2="349.0884"/><line style="stroke:#181818;stroke-width:1;" x1="191.67" x2="199.67" y1="352.0884" y2="352.0884"/><line style="stroke:#181818;stroke-width:1;" x1="195.67" x2="195.67" y1="353.0884" y2="345.0884"/><line style="stroke:#181818;stroke-width:1;" x1="195.67" x2="201.67" y1="396.8984" y2="404.8984"/><line style="stroke:#181818;stroke-width:1;" x1="195.67" x2="189.67" y1="396.8984" y2="404.8984"/><line style="stroke:#181818;stroke-width:1;" x1="195.67" x2="195.67" y1="396.8984" y2="404.8984"/><ellipse cx="195.67" cy="390.8984" fill="none" rx="4" ry="4" style="stroke:#181818;stroke-width:1;"/><text fill="#000000" font-family="Tahoma" font-size="12" lengthAdjust="spacing" textLength="47.8594" x="147.67" y="372.0043">borrower</text></g><!--link users to loans--><g class="link" data-entity-1="users" data-entity-2="loans" data-source-line="124" data-uid="lnk16" id="link_users_loans"><path codeLine="124" d="M247.33,360.0884 C247.33,379.8984 247.33,367.9184 247.33,386.8984" fill="none" id="users-loans-1" style="stroke:#181818;stroke-width:1;"/><line style="stroke:#181818;stroke-width:1;" x1="247.33" x2="247.33" y1="356.0884" y2="345.0884"/><ellipse cx="247.33" cy="356.0884" fill="none" rx="4" ry="4" style="stroke:#181818;stroke-width:1;"/><line style="stroke:#181818;stroke-width:1;" x1="243.33" x2="251.33" y1="349.0884" y2="349.0884"/><line style="stroke:#181818;stroke-width:1;" x1="247.33" x2="253.33" y1="396.8984" y2="404.8984"/><line style="stroke:#181818;stroke-width:1;" x1="247.33" x2="241.33" y1="396.8984" y2="404.8984"/><line style="stroke:#181818;stroke-width:1;" x1="247.33" x2="247.33" y1="396.8984" y2="404.8984"/><ellipse cx="247.33" cy="390.8984" fill="none" rx="4" ry="4" style="stroke:#181818;stroke-width:1;"/><text fill="#000000" font-family="Tahoma" font-size="12" lengthAdjust="spacing" textLength="42.7969" x="204.33" y="372.0043">librarian</text></g><!--link users to reservations--><g class="link" data-entity-1="users" data-entity-2="reservations" data-source-line="125" data-uid="lnk17" id="link_users_reservations"><path codeLine="125" d="M448.31,266.8984 C526.55,266.8984 598.5,266.8984 598.5,266.8984 C598.5,266.8984 598.5,459.6284 598.5,573.6484" fill="none" id="users-reservations" style="stroke:#181818;stroke-width:1;"/><line style="stroke:#181818;stroke-width:1;" x1="444.31" x2="444.31" y1="270.8984" y2="262.8984"/><line style="stroke:#181818;stroke-width:1;" x1="447.31" x2="447.31" y1="270.8984" y2="262.8984"/><line style="stroke:#181818;stroke-width:1;" x1="448.31" x2="440.31" y1="266.8984" y2="266.8984"/><line style="stroke:#181818;stroke-width:1;" x1="598.5" x2="604.5" y1="583.6484" y2="591.6484"/><line style="stroke:#181818;stroke-width:1;" x1="598.5" x2="592.5" y1="583.6484" y2="591.6484"/><line style="stroke:#181818;stroke-width:1;" x1="598.5" x2="598.5" y1="583.6484" y2="591.6484"/><ellipse cx="598.5" cy="577.6484" fill="none" rx="4" ry="4" style="stroke:#181818;stroke-width:1;"/></g><!--link categories to books--><g class="link" data-entity-1="categories" data-entity-2="books" data-source-line="126" data-uid="lnk18" id="link_categories_books"><path codeLine="126" d="M797.5,137.0984 C797.5,154.8684 797.5,150.1384 797.5,170.5884" fill="none" id="categories-books" style="stroke:#181818;stroke-width:1;"/><line style="stroke:#181818;stroke-width:1;" x1="793.5" x2="801.5" y1="133.0984" y2="133.0984"/><line style="stroke:#181818;stroke-width:1;" x1="793.5" x2="801.5" y1="136.0984" y2="136.0984"/><line style="stroke:#181818;stroke-width:1;" x1="797.5" x2="797.5" y1="137.0984" y2="129.0984"/><line style="stroke:#181818;stroke-width:1;" x1="797.5" x2="803.5" y1="180.5884" y2="188.5884"/><line style="stroke:#181818;stroke-width:1;" x1="797.5" x2="791.5" y1="180.5884" y2="188.5884"/><line style="stroke:#181818;stroke-width:1;" x1="797.5" x2="797.5" y1="180.5884" y2="188.5884"/><ellipse cx="797.5" cy="174.5884" fill="none" rx="4" ry="4" style="stroke:#181818;stroke-width:1;"/></g><!--link publishers to books--><g class="link" data-entity-1="publishers" data-entity-2="books" data-source-line="127" data-uid="lnk19" id="link_publishers_books"><path codeLine="127" d="M917.5,137.0984 C917.5,154.8684 917.5,150.1384 917.5,170.5884" fill="none" id="publishers-books" style="stroke:#181818;stroke-width:1;"/><line style="stroke:#181818;stroke-width:1;" x1="913.5" x2="921.5" y1="133.0984" y2="133.0984"/><line style="stroke:#181818;stroke-width:1;" x1="913.5" x2="921.5" y1="136.0984" y2="136.0984"/><line style="stroke:#181818;stroke-width:1;" x1="917.5" x2="917.5" y1="137.0984" y2="129.0984"/><line style="stroke:#181818;stroke-width:1;" x1="917.5" x2="923.5" y1="180.5884" y2="188.5884"/><line style="stroke:#181818;stroke-width:1;" x1="917.5" x2="911.5" y1="180.5884" y2="188.5884"/><line style="stroke:#181818;stroke-width:1;" x1="917.5" x2="917.5" y1="180.5884" y2="188.5884"/><ellipse cx="917.5" cy="174.5884" fill="none" rx="4" ry="4" style="stroke:#181818;stroke-width:1;"/></g><!--link books to book_copies--><g class="link" data-entity-1="books" data-entity-2="book_copies" data-source-line="128" data-uid="lnk20" id="link_books_book_copies"><path codeLine="128" d="M791.75,353.0884 C791.75,372.8984 791.75,367.9184 791.75,386.8984" fill="none" id="books-book_copies" style="stroke:#181818;stroke-width:1;"/><line style="stroke:#181818;stroke-width:1;" x1="787.75" x2="795.75" y1="349.0884" y2="349.0884"/><line style="stroke:#181818;stroke-width:1;" x1="787.75" x2="795.75" y1="352.0884" y2="352.0884"/><line style="stroke:#181818;stroke-width:1;" x1="791.75" x2="791.75" y1="353.0884" y2="345.0884"/><line style="stroke:#181818;stroke-width:1;" x1="791.75" x2="797.75" y1="396.8984" y2="404.8984"/><line style="stroke:#181818;stroke-width:1;" x1="791.75" x2="785.75" y1="396.8984" y2="404.8984"/><line style="stroke:#181818;stroke-width:1;" x1="791.75" x2="791.75" y1="396.8984" y2="404.8984"/><ellipse cx="791.75" cy="390.8984" fill="none" rx="4" ry="4" style="stroke:#181818;stroke-width:1;"/></g><!--link books to reservations--><g class="link" data-entity-1="books" data-entity-2="reservations" data-source-line="129" data-uid="lnk21" id="link_books_reservations"><path codeLine="129" d="M861.5,353.1384 C861.5,424.9284 861.5,504.3684 861.5,573.8084" fill="none" id="books-reservations" style="stroke:#181818;stroke-width:1;"/><line style="stroke:#181818;stroke-width:1;" x1="857.5" x2="865.5" y1="349.1384" y2="349.1384"/><line style="stroke:#181818;stroke-width:1;" x1="857.5" x2="865.5" y1="352.1384" y2="352.1384"/><line style="stroke:#181818;stroke-width:1;" x1="861.5" x2="861.5" y1="353.1384" y2="345.1384"/><line style="stroke:#181818;stroke-width:1;" x1="861.5" x2="867.5" y1="583.8084" y2="591.8084"/><line style="stroke:#181818;stroke-width:1;" x1="861.5" x2="855.5" y1="583.8084" y2="591.8084"/><line style="stroke:#181818;stroke-width:1;" x1="861.5" x2="861.5" y1="583.8084" y2="591.8084"/><ellipse cx="861.5" cy="577.8084" fill="none" rx="4" ry="4" style="stroke:#181818;stroke-width:1;"/></g><!--link book_copies to reservations--><g class="link" data-entity-1="book_copies" data-entity-2="reservations" data-source-line="130" data-uid="lnk22" id="link_book_copies_reservations"><path codeLine="130" d="M730,547.0884 C730,566.1384 730,554.1584 730,573.6684" fill="none" id="book_copies-reservations" style="stroke:#181818;stroke-width:1;"/><line style="stroke:#181818;stroke-width:1;" x1="730" x2="730" y1="543.0884" y2="532.0884"/><ellipse cx="730" cy="543.0884" fill="none" rx="4" ry="4" style="stroke:#181818;stroke-width:1;"/><line style="stroke:#181818;stroke-width:1;" x1="726" x2="734" y1="536.0884" y2="536.0884"/><line style="stroke:#181818;stroke-width:1;" x1="730" x2="736" y1="583.6684" y2="591.6684"/><line style="stroke:#181818;stroke-width:1;" x1="730" x2="724" y1="583.6684" y2="591.6684"/><line style="stroke:#181818;stroke-width:1;" x1="730" x2="730" y1="583.6684" y2="591.6684"/><ellipse cx="730" cy="577.6684" fill="none" rx="4" ry="4" style="stroke:#181818;stroke-width:1;"/><text fill="#000000" font-family="Tahoma" font-size="12" lengthAdjust="spacing" textLength="50.7949" x="679" y="558.8843">held copy</text></g><!--link books to book_authors--><g class="link" data-entity-1="books" data-entity-2="book_authors" data-source-line="131" data-uid="lnk23" id="link_books_book_authors"><path codeLine="131" d="M968.58,330.8984 C986.75,330.8984 992,330.8984 992,330.8984 C992,330.8984 992,379.3784 992,419.8784" fill="none" id="books-book_authors" style="stroke:#181818;stroke-width:1;"/><line style="stroke:#181818;stroke-width:1;" x1="964.58" x2="964.58" y1="334.8984" y2="326.8984"/><line style="stroke:#181818;stroke-width:1;" x1="967.58" x2="967.58" y1="334.8984" y2="326.8984"/><line style="stroke:#181818;stroke-width:1;" x1="968.58" x2="960.58" y1="330.8984" y2="330.8984"/><line style="stroke:#181818;stroke-width:1;" x1="992" x2="998" y1="429.8784" y2="437.8784"/><line style="stroke:#181818;stroke-width:1;" x1="992" x2="986" y1="429.8784" y2="437.8784"/><line style="stroke:#181818;stroke-width:1;" x1="992" x2="992" y1="429.8784" y2="437.8784"/><ellipse cx="992" cy="423.8784" fill="none" rx="4" ry="4" style="stroke:#181818;stroke-width:1;"/></g><!--link authors to book_authors--><g class="link" data-entity-1="authors" data-entity-2="book_authors" data-source-line="132" data-uid="lnk24" id="link_authors_book_authors"><path codeLine="132" d="M1081,323.9284 C1081,361.9084 1081,387.3384 1081,419.6884" fill="none" id="authors-book_authors" style="stroke:#181818;stroke-width:1;"/><line style="stroke:#181818;stroke-width:1;" x1="1077" x2="1085" y1="319.9284" y2="319.9284"/><line style="stroke:#181818;stroke-width:1;" x1="1077" x2="1085" y1="322.9284" y2="322.9284"/><line style="stroke:#181818;stroke-width:1;" x1="1081" x2="1081" y1="323.9284" y2="315.9284"/><line style="stroke:#181818;stroke-width:1;" x1="1081" x2="1087" y1="429.6884" y2="437.6884"/><line style="stroke:#181818;stroke-width:1;" x1="1081" x2="1075" y1="429.6884" y2="437.6884"/><line style="stroke:#181818;stroke-width:1;" x1="1081" x2="1081" y1="429.6884" y2="437.6884"/><ellipse cx="1081" cy="423.6884" fill="none" rx="4" ry="4" style="stroke:#181818;stroke-width:1;"/></g><!--link loans to loan_items--><g class="link" data-entity-1="loans" data-entity-2="loan_items" data-source-line="133" data-uid="lnk25" id="link_loans_loan_items"><path codeLine="133" d="M212.75,540.0884 C212.75,561.5784 212.75,559.5684 212.75,581.0684" fill="none" id="loans-loan_items" style="stroke:#181818;stroke-width:1;"/><line style="stroke:#181818;stroke-width:1;" x1="208.75" x2="216.75" y1="536.0884" y2="536.0884"/><line style="stroke:#181818;stroke-width:1;" x1="208.75" x2="216.75" y1="539.0884" y2="539.0884"/><line style="stroke:#181818;stroke-width:1;" x1="212.75" x2="212.75" y1="540.0884" y2="532.0884"/><line style="stroke:#181818;stroke-width:1;" x1="212.75" x2="218.75" y1="591.0684" y2="599.0684"/><line style="stroke:#181818;stroke-width:1;" x1="212.75" x2="206.75" y1="591.0684" y2="599.0684"/><line style="stroke:#181818;stroke-width:1;" x1="212.75" x2="212.75" y1="591.0684" y2="599.0684"/><ellipse cx="212.75" cy="585.0684" fill="none" rx="4" ry="4" style="stroke:#181818;stroke-width:1;"/></g><!--link book_copies to loan_items--><g class="link" data-entity-1="book_copies" data-entity-2="loan_items" data-source-line="134" data-uid="lnk26" id="link_book_copies_loan_items"><path codeLine="134" d="M623.6,528.8984 C514.29,528.8984 361,528.8984 361,528.8984 C361,528.8984 361,546.5284 361,581.0384" fill="none" id="book_copies-loan_items" style="stroke:#181818;stroke-width:1;"/><line style="stroke:#181818;stroke-width:1;" x1="627.6" x2="627.6" y1="524.8984" y2="532.8984"/><line style="stroke:#181818;stroke-width:1;" x1="624.6" x2="624.6" y1="524.8984" y2="532.8984"/><line style="stroke:#181818;stroke-width:1;" x1="623.6" x2="631.6" y1="528.8984" y2="528.8984"/><line style="stroke:#181818;stroke-width:1;" x1="361" x2="367" y1="591.0384" y2="599.0384"/><line style="stroke:#181818;stroke-width:1;" x1="361" x2="355" y1="591.0384" y2="599.0384"/><line style="stroke:#181818;stroke-width:1;" x1="361" x2="361" y1="591.0384" y2="599.0384"/><ellipse cx="361" cy="585.0384" fill="none" rx="4" ry="4" style="stroke:#181818;stroke-width:1;"/></g><!--link loan_items to fines--><g class="link" data-entity-1="loan_items" data-entity-2="fines" data-source-line="135" data-uid="lnk27" id="link_loan_items_fines"><path codeLine="135" d="M257,734.5384 C257,755.9284 257,756.9284 257,778.8584" fill="none" id="loan_items-fines" style="stroke:#181818;stroke-width:1;"/><line style="stroke:#181818;stroke-width:1;" x1="253" x2="261" y1="730.5384" y2="730.5384"/><line style="stroke:#181818;stroke-width:1;" x1="253" x2="261" y1="733.5384" y2="733.5384"/><line style="stroke:#181818;stroke-width:1;" x1="257" x2="257" y1="734.5384" y2="726.5384"/><line style="stroke:#181818;stroke-width:1;" x1="257" x2="257" y1="782.8584" y2="793.8584"/><ellipse cx="257" cy="782.8584" fill="none" rx="4" ry="4" style="stroke:#181818;stroke-width:1;"/><line style="stroke:#181818;stroke-width:1;" x1="261" x2="253" y1="789.8584" y2="789.8584"/></g><!--SRC=[dLVTRjis5BxNKnpuAWdg876H8JMQ0ewZjCPYDtFihBiIQ8cEYKYYIb9nrMR07c9Fk2VP8IdPbFmpTrUMU8xF-RxpIoccOWh-66uOUH8aWN_- -Xlks4oGsvWl8IAAp8YaSFHutdvyT-nvyfcb6T6Q4PsJF5QtF5KZab1eJSY29wIrNUM1VQTmtd64Sa4YlcJf4yn9BAaZYLbALP5Hu48jkBTW4OMGYJ2czZcXU1n9pwEfOgg0LYwfa2qW4imJ_F00Je15q8NhmSS7VppetS7xz_U_VlY0adRRYBLgge5tuR4txd_gZOykpevHRMhLJY0ZKYwvY885aGj7hNDnSMmKQ49Ox0ZEprm3J0OaLEn5UxZ-_FdExutW2YRZgO_2K52YQ1GGXTB9OEW_J7h3UvJtf-EnFve4gpFZIV3O1Tf1FrSmz8VN_XZb2KrcL0IAKR6Xz32Ptg0zxyzwk89Cy3cBwJfigvCoVEQiYk5WD341V0EtjI3EcP0gQ8HHXy58Ox9Jc2ruIeCqry3hc558eaXGANLa_2yrw246xOaBLk9UlnwMymQMIpTT4PMXO9bYF6tcsW6GvREOoKLLR-lN_mNWlECY27cUAb4uyb_EQiv9ZeLVUYwV3tCxp-CusEvxSFF5QAP4CoUnTbG7031Z78T3jYYsP6J6-RD5P9uEmyFaB6rKgjDtoWmbLrn3MiOyA2ZHfOEbgGy52_L_HjCXkknZcRtfs28iQwHerF8jrd9byMITnxrQEvisvSkZusPK0ZTTxa4P8tEqiy5EoWplqcWw2tbMTONpVbWwPaI4F793_hQUaIrGLp2b8YgN6zdiV_BxLWN36i-3c8UaqLjlop51mgyv4rLSRteJtsKNSv9QNkRfC4PQDMXmQbJPbldcPZlMIr0mDBE3jt612v8UDC3tHQbosY0TC4MJDNFx-XFqzrLoLIBxkoBAQSLGPyNfGK5LBj9QoioQeYbT1cQEuV73i7Ttf-rUmLd55SvEJpjrhdDSzvQcUVePXXYH1e6fwGzWAJnULdsKb7WsPmD_eSAIBEHgb6nFrlu1i2tf6M5DJPSsRZWgNanFMFRkmU5Nc8q4MkuRoVulDUiTkMsj2gFzpZMwqZye5lHRXXqkc-7OqnbZltVp1tenem4tFQ82aaRMKc4hoDxsNb_RxTVNnXsc2wrxH8rxCfOSAwBbAFCVvIZfwjaf15zIiPBpkdmr1Xe6t6HvpZMa59jTw3ctWzgvtPJEKJcjwuAQ2tUcbnXhzT85dBAH2TCMy-NYyQe5j4rcAJlniGEdxdb3wamc8torJUnvASUvCUDAyGJulEuAO4ZIegruM_zsovk3pkvQey-JZ4kq39Z7exA4twoNuZ4sKWJQouOlYm3WyKBV92LCHuFVfZxWxd6dngdMkBGQQa5XpWLbJoayqm8KTpYUxlPKIv5r6EE8Y0h0JmRicOX-eoKn70T2CH93dhAlERL2xHJ_XrTX-Bqtc0n67_6R1whINzc632_9kloCAHqB5tmr1IgPVdR8o5FiNFrDfKDiRQ_QtLf7jWXlKKWM8hvLfyKiOKeQS2KY_2BKIBI64vH_0G00]--></g></svg>